<?xml version="1.0" encoding="UTF-8" standalone="no"?><svg xmlns="http://www.w3.org/2000/svg" xmlns:xlink="http://www.w3.org/1999/xlink" contentScriptType="application/ecmascript" contentStyleType="text/css" height="218px" preserveAspectRatio="none" style="width:506px;height:218px;background:#FFFFFF;" version="1.1" viewBox="0 0 506 218" width="506px" zoomAndPan="magnify"><defs/><g><line style="stroke:#000000;stroke-width:1.7;" x1="10" x2="10" y1="10" y2="187.9063"/><line style="stroke:#000000;stroke-width:1.7;" x1="489" x2="489" y1="10" y2="187.9063"/><line style="stroke:#AAAAAA;stroke-width:0.5;stroke-dasharray:3.0,5.0;" x1="84" x2="84" y1="10" y2="187.9063"/><line style="stroke:#AAAAAA;stroke-width:0.5;stroke-dasharray:3.0,5.0;" x1="134" x2="134" y1="10" y2="187.9063"/><line style="stroke:#AAAAAA;stroke-width:0.5;stroke-dasharray:3.0,5.0;" x1="184" x2="184" y1="10" y2="187.9063"/><line style="stroke:#AAAAAA;stroke-width:0.5;stroke-dasharray:3.0,5.0;" x1="234" x2="234" y1="10" y2="187.9063"/><line style="stroke:#AAAAAA;stroke-width:0.5;stroke-dasharray:3.0,5.0;" x1="284" x2="284" y1="10" y2="187.9063"/><line style="stroke:#AAAAAA;stroke-width:0.5;stroke-dasharray:3.0,5.0;" x1="334" x2="334" y1="10" y2="187.9063"/><line style="stroke:#AAAAAA;stroke-width:0.5;stroke-dasharray:3.0,5.0;" x1="384" x2="384" y1="10" y2="187.9063"/><line style="stroke:#AAAAAA;stroke-width:0.5;stroke-dasharray:3.0,5.0;" x1="434" x2="434" y1="10" y2="187.9063"/><line style="stroke:#AAAAAA;stroke-width:0.5;stroke-dasharray:3.0,5.0;" x1="484" x2="484" y1="10" y2="187.9063"/><line style="stroke:#000000;stroke-width:1.7;" x1="10" x2="489" y1="10" y2="10"/><text fill="#000000" font-family="sans-serif" font-size="12" lengthAdjust="spacing" textLength="83" x="15" y="21.1387">DNS Resolver</text><line style="stroke:#000000;stroke-width:1.0;" x1="10" x2="99" y1="24.9688" y2="24.9688"/><line style="stroke:#000000;stroke-width:1.0;" x1="99" x2="109" y1="24.9688" y2="10"/><text fill="#000000" font-family="sans-serif" font-size="12" lengthAdjust="spacing" textLength="22" x="15" y="55.123">Idle</text><text fill="#000000" font-family="sans-serif" font-size="12" lengthAdjust="spacing" textLength="69" x="15" y="35.123">Processing</text><line style="stroke:#038048;stroke-width:1.5;" x1="84" x2="284" y1="49.9688" y2="49.9688"/><line style="stroke:#038048;stroke-width:1.5;" x1="284" x2="434" y1="29.9688" y2="29.9688"/><line style="stroke:#038048;stroke-width:1.5;" x1="434" x2="484" y1="49.9688" y2="49.9688"/><line style="stroke:#038048;stroke-width:1.5;" x1="284" x2="284" y1="29.9688" y2="49.9688"/><line style="stroke:#038048;stroke-width:1.5;" x1="434" x2="434" y1="29.9688" y2="49.9688"/><line style="stroke:#000000;stroke-width:1.7;" x1="10" x2="489" y1="61.9688" y2="61.9688"/><text fill="#000000" font-family="sans-serif" font-size="12" lengthAdjust="spacing" textLength="81" x="15" y="73.1074">Web Browser</text><line style="stroke:#000000;stroke-width:1.0;" x1="10" x2="97" y1="76.9375" y2="76.9375"/><line style="stroke:#000000;stroke-width:1.0;" x1="97" x2="107" y1="76.9375" y2="61.9688"/><text fill="#000000" font-family="sans-serif" font-size="12" lengthAdjust="spacing" textLength="22" x="15" y="127.0918">Idle</text><text fill="#000000" font-family="sans-serif" font-size="12" lengthAdjust="spacing" textLength="69" x="15" y="107.0918">Processing</text><text fill="#000000" font-family="sans-serif" font-size="12" lengthAdjust="spacing" textLength="46" x="15" y="87.0918">Waiting</text><line style="stroke:#038048;stroke-width:1.5;" x1="84" x2="134" y1="121.9375" y2="121.9375"/><line style="stroke:#038048;stroke-width:1.5;" x1="134" x2="234" y1="101.9375" y2="101.9375"/><line style="stroke:#038048;stroke-width:1.5;" x1="234" x2="484" y1="81.9375" y2="81.9375"/><line style="stroke:#038048;stroke-width:1.5;" x1="134" x2="134" y1="101.9375" y2="121.9375"/><line style="stroke:#038048;stroke-width:1.5;" x1="234" x2="234" y1="81.9375" y2="101.9375"/><line style="stroke:#000000;stroke-width:1.7;" x1="10" x2="489" y1="133.9375" y2="133.9375"/><text fill="#000000" font-family="sans-serif" font-size="12" lengthAdjust="spacing" textLength="60" x="15" y="145.0762">Web User</text><line style="stroke:#000000;stroke-width:1.0;" x1="10" x2="76" y1="148.9063" y2="148.9063"/><line style="stroke:#000000;stroke-width:1.0;" x1="76" x2="86" y1="148.9063" y2="133.9375"/><polygon fill="#D7E0F2" points="96,153.9063,122,153.9063,134,165.9063,122,177.9063,96,177.9063,84,165.9063" style="stroke:#038048;stroke-width:1.5;"/><polygon fill="#D7E0F2" points="146,153.9063,484,153.9063,484,177.9063,146,177.9063,134,165.9063" style="stroke:#D7E0F2;stroke-width:1.5;"/><path d="M484,153.9063 L146,153.9063 L134,165.9063 L146,177.9063 L484,177.9063 " fill="#D7E0F2" style="stroke:#038048;stroke-width:1.5;"/><text fill="#000000" font-family="sans-serif" font-size="12" lengthAdjust="spacing" textLength="22" x="98" y="170.0605">Idle</text><text fill="#000000" font-family="sans-serif" font-size="12" lengthAdjust="spacing" textLength="46" x="146" y="170.0605">Waiting</text><line style="stroke:#000000;stroke-width:2.0;" x1="84" x2="84" y1="187.9063" y2="192.9063"/><line style="stroke:#000000;stroke-width:2.0;" x1="134" x2="134" y1="187.9063" y2="192.9063"/><line style="stroke:#000000;stroke-width:2.0;" x1="184" x2="184" y1="187.9063" y2="192.9063"/><line style="stroke:#000000;stroke-width:2.0;" x1="234" x2="234" y1="187.9063" y2="192.9063"/><line style="stroke:#000000;stroke-width:2.0;" x1="284" x2="284" y1="187.9063" y2="192.9063"/><line style="stroke:#000000;stroke-width:2.0;" x1="334" x2="334" y1="187.9063" y2="192.9063"/><line style="stroke:#000000;stroke-width:2.0;" x1="384" x2="384" y1="187.9063" y2="192.9063"/><line style="stroke:#000000;stroke-width:2.0;" x1="434" x2="434" y1="187.9063" y2="192.9063"/><line style="stroke:#000000;stroke-width:2.0;" x1="484" x2="484" y1="187.9063" y2="192.9063"/><line style="stroke:#000000;stroke-width:2.0;" x1="84" x2="484" y1="187.9063" y2="187.9063"/><text fill="#000000" font-family="sans-serif" font-size="12" lengthAdjust="spacing" textLength="8" x="80" y="205.0449">0</text><text fill="#000000" font-family="sans-serif" font-size="12" lengthAdjust="spacing" textLength="24" x="122" y="205.0449">100</text><text fill="#000000" font-family="sans-serif" font-size="12" lengthAdjust="spacing" textLength="24" x="222" y="205.0449">300</text><text fill="#000000" font-family="sans-serif" font-size="12" lengthAdjust="spacing" textLength="24" x="272" y="205.0449">400</text><text fill="#000000" font-family="sans-serif" font-size="12" lengthAdjust="spacing" textLength="24" x="422" y="205.0449">700</text><line style="stroke:#A80036;stroke-width:1.5;" x1="134" x2="134" y1="165.9063" y2="121.9375"/><polygon fill="#A80036" points="136.7362,129.455,131.2638,129.455,134,121.9375" style="stroke:#A80036;stroke-width:1.5;"/><text fill="#A80036" font-family="Serif" font-size="14" lengthAdjust="spacing" textLength="32" x="134" y="142.4502">URL</text><line style="stroke:#A80036;stroke-width:1.5;" x1="234" x2="259" y1="81.9375" y2="49.9688"/><polygon fill="#A80036" points="256.5244,57.5761,252.2137,54.205,259,49.9688" style="stroke:#A80036;stroke-width:1.5;"/><text fill="#A80036" font-family="Serif" font-size="14" lengthAdjust="spacing" textLength="90" x="254.3691" y="68.8857">Resolve URL</text><!--MD5=[0150d3c73e724d20e6e519d93e6c2bb3]
@startuml
robust "DNS Resolver" as DNS
robust "Web Browser" as WB
concise "Web User" as WU

@0
WU is Idle
WB is Idle
DNS is Idle

@+100
WU -> WB : URL
WU is Waiting
WB is Processing

@+200
WB is Waiting
WB -> DNS@+50 : Resolve URL

@+100
DNS is Processing

@+300
DNS is Idle
@enduml

PlantUML version 1.2022.1(Tue Feb 01 18:19:58 UTC 2022)
(GPL source distribution)
Java Runtime: OpenJDK Runtime Environment
JVM: OpenJDK 64-Bit Server VM
Default Encoding: UTF-8
Language: en
Country: null
--></g></svg>