<?xml version="1.0" encoding="UTF-8" standalone="no"?><svg xmlns="http://www.w3.org/2000/svg" xmlns:xlink="http://www.w3.org/1999/xlink" contentScriptType="application/ecmascript" contentStyleType="text/css" height="219px" preserveAspectRatio="none" style="width:498px;height:219px;" version="1.1" viewBox="0 0 498 219" width="498px" zoomAndPan="magnify"><defs/><g><line style="stroke:#000000;stroke-width:1.7;" x1="10" x2="10" y1="10" y2="188.3984"/><line style="stroke:#000000;stroke-width:1.7;" x1="481" x2="481" y1="10" y2="188.3984"/><line style="stroke:#AAAAAA;stroke-width:0.5;stroke-dasharray:3.0,5.0;" x1="76" x2="76" y1="10" y2="188.3984"/><line style="stroke:#AAAAAA;stroke-width:0.5;stroke-dasharray:3.0,5.0;" x1="126" x2="126" y1="10" y2="188.3984"/><line style="stroke:#AAAAAA;stroke-width:0.5;stroke-dasharray:3.0,5.0;" x1="176" x2="176" y1="10" y2="188.3984"/><line style="stroke:#AAAAAA;stroke-width:0.5;stroke-dasharray:3.0,5.0;" x1="226" x2="226" y1="10" y2="188.3984"/><line style="stroke:#AAAAAA;stroke-width:0.5;stroke-dasharray:3.0,5.0;" x1="276" x2="276" y1="10" y2="188.3984"/><line style="stroke:#AAAAAA;stroke-width:0.5;stroke-dasharray:3.0,5.0;" x1="326" x2="326" y1="10" y2="188.3984"/><line style="stroke:#AAAAAA;stroke-width:0.5;stroke-dasharray:3.0,5.0;" x1="376" x2="376" y1="10" y2="188.3984"/><line style="stroke:#AAAAAA;stroke-width:0.5;stroke-dasharray:3.0,5.0;" x1="426" x2="426" y1="10" y2="188.3984"/><line style="stroke:#AAAAAA;stroke-width:0.5;stroke-dasharray:3.0,5.0;" x1="476" x2="476" y1="10" y2="188.3984"/><line style="stroke:#000000;stroke-width:1.7;" x1="10" x2="481" y1="10" y2="10"/><text fill="#000000" font-family="sans-serif" font-size="12" lengthAdjust="spacing" textLength="77" x="15" y="21.6016">DNS Resolver</text><line style="stroke:#000000;stroke-width:1.0;" x1="10" x2="93" y1="25.1328" y2="25.1328"/><line style="stroke:#000000;stroke-width:1.0;" x1="93" x2="103" y1="25.1328" y2="10"/><text fill="#000000" font-family="sans-serif" font-size="12" lengthAdjust="spacing" textLength="21" x="15" y="55.668">Idle</text><text fill="#000000" font-family="sans-serif" font-size="12" lengthAdjust="spacing" textLength="61" x="15" y="35.668">Processing</text><line style="stroke:#038048;stroke-width:1.5;" x1="76" x2="276" y1="50.1328" y2="50.1328"/><line style="stroke:#038048;stroke-width:1.5;" x1="276" x2="426" y1="30.1328" y2="30.1328"/><line style="stroke:#038048;stroke-width:1.5;" x1="426" x2="476" y1="50.1328" y2="50.1328"/><line style="stroke:#038048;stroke-width:1.5;" x1="276" x2="276" y1="30.1328" y2="50.1328"/><line style="stroke:#038048;stroke-width:1.5;" x1="426" x2="426" y1="30.1328" y2="50.1328"/><line style="stroke:#000000;stroke-width:1.7;" x1="10" x2="481" y1="62.1328" y2="62.1328"/><text fill="#000000" font-family="sans-serif" font-size="12" lengthAdjust="spacing" textLength="75" x="15" y="73.7344">Web Browser</text><line style="stroke:#000000;stroke-width:1.0;" x1="10" x2="91" y1="77.2656" y2="77.2656"/><line style="stroke:#000000;stroke-width:1.0;" x1="91" x2="101" y1="77.2656" y2="62.1328"/><text fill="#000000" font-family="sans-serif" font-size="12" lengthAdjust="spacing" textLength="21" x="15" y="127.8008">Idle</text><text fill="#000000" font-family="sans-serif" font-size="12" lengthAdjust="spacing" textLength="61" x="15" y="107.8008">Processing</text><text fill="#000000" font-family="sans-serif" font-size="12" lengthAdjust="spacing" textLength="41" x="15" y="87.8008">Waiting</text><line style="stroke:#038048;stroke-width:1.5;" x1="76" x2="126" y1="122.2656" y2="122.2656"/><line style="stroke:#038048;stroke-width:1.5;" x1="126" x2="226" y1="102.2656" y2="102.2656"/><line style="stroke:#038048;stroke-width:1.5;" x1="226" x2="476" y1="82.2656" y2="82.2656"/><line style="stroke:#038048;stroke-width:1.5;" x1="126" x2="126" y1="102.2656" y2="122.2656"/><line style="stroke:#038048;stroke-width:1.5;" x1="226" x2="226" y1="82.2656" y2="102.2656"/><line style="stroke:#000000;stroke-width:1.7;" x1="10" x2="481" y1="134.2656" y2="134.2656"/><text fill="#000000" font-family="sans-serif" font-size="12" lengthAdjust="spacing" textLength="55" x="15" y="145.8672">Web User</text><line style="stroke:#000000;stroke-width:1.0;" x1="10" x2="71" y1="149.3984" y2="149.3984"/><line style="stroke:#000000;stroke-width:1.0;" x1="71" x2="81" y1="149.3984" y2="134.2656"/><polygon fill="#D7E0F2" points="88,154.3984,114,154.3984,126,166.3984,114,178.3984,88,178.3984,76,166.3984" style="stroke:#038048;stroke-width:1.5;"/><polygon fill="#D7E0F2" points="138,154.3984,476,154.3984,476,178.3984,138,178.3984,126,166.3984" style="stroke:#D7E0F2;stroke-width:1.5;"/><path d="M476,154.3984 L138,154.3984 L126,166.3984 L138,178.3984 L476,178.3984 " fill="#D7E0F2" style="stroke:#038048;stroke-width:1.5;"/><text fill="#000000" font-family="sans-serif" font-size="12" lengthAdjust="spacing" textLength="21" x="90.5" y="170.9336">Idle</text><text fill="#000000" font-family="sans-serif" font-size="12" lengthAdjust="spacing" textLength="41" x="138" y="170.9336">Waiting</text><line style="stroke:#000000;stroke-width:2.0;" x1="76" x2="76" y1="188.3984" y2="193.3984"/><line style="stroke:#000000;stroke-width:2.0;" x1="126" x2="126" y1="188.3984" y2="193.3984"/><line style="stroke:#000000;stroke-width:2.0;" x1="176" x2="176" y1="188.3984" y2="193.3984"/><line style="stroke:#000000;stroke-width:2.0;" x1="226" x2="226" y1="188.3984" y2="193.3984"/><line style="stroke:#000000;stroke-width:2.0;" x1="276" x2="276" y1="188.3984" y2="193.3984"/><line style="stroke:#000000;stroke-width:2.0;" x1="326" x2="326" y1="188.3984" y2="193.3984"/><line style="stroke:#000000;stroke-width:2.0;" x1="376" x2="376" y1="188.3984" y2="193.3984"/><line style="stroke:#000000;stroke-width:2.0;" x1="426" x2="426" y1="188.3984" y2="193.3984"/><line style="stroke:#000000;stroke-width:2.0;" x1="476" x2="476" y1="188.3984" y2="193.3984"/><line style="stroke:#000000;stroke-width:2.0;" x1="76" x2="476" y1="188.3984" y2="188.3984"/><text fill="#000000" font-family="sans-serif" font-size="12" lengthAdjust="spacing" textLength="8" x="72" y="206">0</text><text fill="#000000" font-family="sans-serif" font-size="12" lengthAdjust="spacing" textLength="24" x="114" y="206">100</text><text fill="#000000" font-family="sans-serif" font-size="12" lengthAdjust="spacing" textLength="24" x="214" y="206">300</text><text fill="#000000" font-family="sans-serif" font-size="12" lengthAdjust="spacing" textLength="24" x="264" y="206">400</text><text fill="#000000" font-family="sans-serif" font-size="12" lengthAdjust="spacing" textLength="24" x="414" y="206">700</text><line style="stroke:#0000FF;stroke-width:1.0;" x1="126" x2="126" y1="166.3984" y2="122.2656"/><polygon fill="#0000FF" points="128.7362,129.7832,123.2638,129.7832,126,122.2656" style="stroke:#0000FF;stroke-width:1.0;"/><text fill="#0000FF" font-family="Serif" font-size="14" lengthAdjust="spacing" textLength="28" x="126" y="140.2832">URL</text><line style="stroke:#0000FF;stroke-width:1.0;" x1="226" x2="251" y1="82.2656" y2="50.1328"/><polygon fill="#0000FF" points="248.5433,57.7463,244.2242,54.3859,251,50.1328" style="stroke:#0000FF;stroke-width:1.0;"/><text fill="#0000FF" font-family="Serif" font-size="14" lengthAdjust="spacing" textLength="76" x="246.3838" y="66.5661">Resolve URL</text><!--MD5=[dd9fd8a5c522e688927835dc6b824c76]
@startuml
robust "DNS Resolver" as DNS
robust "Web Browser" as WB
concise "Web User" as WU

@0
WU is Idle
WB is Idle
DNS is Idle

@+100
WU -> WB : URL
WU is Waiting
WB is Processing

@+200
WB is Waiting
WB -> DNS@+50 : Resolve URL

@+100
DNS is Processing

@+300
DNS is Idle
@enduml

PlantUML version 1.2021.4(Sun Apr 04 10:49:39 CEST 2021)
(GPL source distribution)
Java Runtime: Java(TM) SE Runtime Environment
JVM: Java HotSpot(TM) 64-Bit Server VM
Default Encoding: UTF-8
Language: en
Country: FR
--></g></svg>