<?xml version="1.0" encoding="us-ascii" standalone="no"?><svg xmlns="http://www.w3.org/2000/svg" xmlns:xlink="http://www.w3.org/1999/xlink" contentStyleType="text/css" height="224px" preserveAspectRatio="none" style="width:503px;height:224px;background:#FFFFFF;" version="1.1" viewBox="0 0 503 224" width="503px" zoomAndPan="magnify"><defs/><g><line style="stroke:#333333;stroke-width:0.5;" x1="10" x2="10" y1="10" y2="194.8906"/><line style="stroke:#333333;stroke-width:0.5;" x1="486" x2="486" y1="10" y2="194.8906"/><line style="stroke:#333333;stroke-width:0.5;stroke-dasharray:3.0,5.0;" x1="81" x2="81" y1="10" y2="194.8906"/><line style="stroke:#333333;stroke-width:0.5;stroke-dasharray:3.0,5.0;" x1="131" x2="131" y1="10" y2="194.8906"/><line style="stroke:#333333;stroke-width:0.5;stroke-dasharray:3.0,5.0;" x1="181" x2="181" y1="10" y2="194.8906"/><line style="stroke:#333333;stroke-width:0.5;stroke-dasharray:3.0,5.0;" x1="231" x2="231" y1="10" y2="194.8906"/><line style="stroke:#333333;stroke-width:0.5;stroke-dasharray:3.0,5.0;" x1="281" x2="281" y1="10" y2="194.8906"/><line style="stroke:#333333;stroke-width:0.5;stroke-dasharray:3.0,5.0;" x1="331" x2="331" y1="10" y2="194.8906"/><line style="stroke:#333333;stroke-width:0.5;stroke-dasharray:3.0,5.0;" x1="381" x2="381" y1="10" y2="194.8906"/><line style="stroke:#333333;stroke-width:0.5;stroke-dasharray:3.0,5.0;" x1="431" x2="431" y1="10" y2="194.8906"/><line style="stroke:#333333;stroke-width:0.5;stroke-dasharray:3.0,5.0;" x1="481" x2="481" y1="10" y2="194.8906"/><line style="stroke:#333333;stroke-width:0.5;" x1="10" x2="486" y1="10" y2="10"/><text fill="#333333" font-family="sans-serif" font-size="14" font-weight="bold" lengthAdjust="spacing" textLength="106" x="15" y="22.9951">DNS Resolver</text><line style="stroke:#333333;stroke-width:0.5;" x1="10" x2="122" y1="27.2969" y2="27.2969"/><line style="stroke:#333333;stroke-width:0.5;" x1="122" x2="132" y1="27.2969" y2="10"/><text fill="#333333" font-family="sans-serif" font-size="12" lengthAdjust="spacing" textLength="22" x="15" y="57.4512">Idle</text><text fill="#333333" font-family="sans-serif" font-size="12" lengthAdjust="spacing" textLength="66" x="15" y="37.4512">Processing</text><line style="stroke:#006400;stroke-width:2.0;" x1="81" x2="281" y1="52.2969" y2="52.2969"/><line style="stroke:#006400;stroke-width:2.0;" x1="281" x2="431" y1="32.2969" y2="32.2969"/><line style="stroke:#006400;stroke-width:2.0;" x1="431" x2="481" y1="52.2969" y2="52.2969"/><line style="stroke:#006400;stroke-width:2.0;" x1="281" x2="281" y1="32.2969" y2="52.2969"/><line style="stroke:#006400;stroke-width:2.0;" x1="431" x2="431" y1="32.2969" y2="52.2969"/><line style="stroke:#333333;stroke-width:0.5;" x1="10" x2="486" y1="64.2969" y2="64.2969"/><text fill="#333333" font-family="sans-serif" font-size="14" font-weight="bold" lengthAdjust="spacing" textLength="105" x="15" y="77.292">Web Browser</text><line style="stroke:#333333;stroke-width:0.5;" x1="10" x2="121" y1="81.5938" y2="81.5938"/><line style="stroke:#333333;stroke-width:0.5;" x1="121" x2="131" y1="81.5938" y2="64.2969"/><text fill="#333333" font-family="sans-serif" font-size="12" lengthAdjust="spacing" textLength="22" x="15" y="131.748">Idle</text><text fill="#333333" font-family="sans-serif" font-size="12" lengthAdjust="spacing" textLength="66" x="15" y="111.748">Processing</text><text fill="#333333" font-family="sans-serif" font-size="12" lengthAdjust="spacing" textLength="44" x="15" y="91.748">Waiting</text><line style="stroke:#006400;stroke-width:2.0;" x1="81" x2="131" y1="126.5938" y2="126.5938"/><line style="stroke:#006400;stroke-width:2.0;" x1="131" x2="231" y1="106.5938" y2="106.5938"/><line style="stroke:#006400;stroke-width:2.0;" x1="231" x2="481" y1="86.5938" y2="86.5938"/><line style="stroke:#006400;stroke-width:2.0;" x1="131" x2="131" y1="106.5938" y2="126.5938"/><line style="stroke:#006400;stroke-width:2.0;" x1="231" x2="231" y1="86.5938" y2="106.5938"/><line style="stroke:#333333;stroke-width:0.5;" x1="10" x2="486" y1="138.5938" y2="138.5938"/><text fill="#333333" font-family="sans-serif" font-size="14" font-weight="bold" lengthAdjust="spacing" textLength="75" x="15" y="151.5889">Web User</text><line style="stroke:#333333;stroke-width:0.5;" x1="10" x2="91" y1="155.8906" y2="155.8906"/><line style="stroke:#333333;stroke-width:0.5;" x1="91" x2="101" y1="155.8906" y2="138.5938"/><polygon fill="#E2E2F0" points="93,160.8906,119,160.8906,131,172.8906,119,184.8906,93,184.8906,81,172.8906" style="stroke:#006400;stroke-width:1.5;"/><polygon fill="#E2E2F0" points="143,160.8906,481,160.8906,481,184.8906,143,184.8906,131,172.8906" style="stroke:#E2E2F0;stroke-width:1.5;"/><path d="M481,160.8906 L143,160.8906 L131,172.8906 L143,184.8906 L481,184.8906 " fill="#E2E2F0" style="stroke:#006400;stroke-width:1.5;"/><text fill="#333333" font-family="sans-serif" font-size="12" font-weight="bold" lengthAdjust="spacing" textLength="26" x="93" y="177.0449">Idle</text><text fill="#333333" font-family="sans-serif" font-size="12" font-weight="bold" lengthAdjust="spacing" textLength="55" x="143" y="177.0449">Waiting</text><line style="stroke:#333333;stroke-width:2.0;" x1="81" x2="81" y1="194.8906" y2="199.8906"/><line style="stroke:#333333;stroke-width:2.0;" x1="131" x2="131" y1="194.8906" y2="199.8906"/><line style="stroke:#333333;stroke-width:2.0;" x1="181" x2="181" y1="194.8906" y2="199.8906"/><line style="stroke:#333333;stroke-width:2.0;" x1="231" x2="231" y1="194.8906" y2="199.8906"/><line style="stroke:#333333;stroke-width:2.0;" x1="281" x2="281" y1="194.8906" y2="199.8906"/><line style="stroke:#333333;stroke-width:2.0;" x1="331" x2="331" y1="194.8906" y2="199.8906"/><line style="stroke:#333333;stroke-width:2.0;" x1="381" x2="381" y1="194.8906" y2="199.8906"/><line style="stroke:#333333;stroke-width:2.0;" x1="431" x2="431" y1="194.8906" y2="199.8906"/><line style="stroke:#333333;stroke-width:2.0;" x1="481" x2="481" y1="194.8906" y2="199.8906"/><line style="stroke:#333333;stroke-width:2.0;" x1="81" x2="481" y1="194.8906" y2="194.8906"/><text fill="#333333" font-family="sans-serif" font-size="11" lengthAdjust="spacing" textLength="7" x="77.5" y="211.1011">0</text><text fill="#333333" font-family="sans-serif" font-size="11" lengthAdjust="spacing" textLength="21" x="120.5" y="211.1011">100</text><text fill="#333333" font-family="sans-serif" font-size="11" lengthAdjust="spacing" textLength="21" x="220.5" y="211.1011">300</text><text fill="#333333" font-family="sans-serif" font-size="11" lengthAdjust="spacing" textLength="21" x="270.5" y="211.1011">400</text><text fill="#333333" font-family="sans-serif" font-size="11" lengthAdjust="spacing" textLength="21" x="420.5" y="211.1011">700</text><line style="stroke:#00008B;stroke-width:1.5;" x1="131" x2="131" y1="172.8906" y2="126.5938"/><polygon fill="#00008B" points="133.7362,134.1113,128.2638,134.1113,131,126.5938" style="stroke:#00008B;stroke-width:1.5;"/><text fill="#00008B" font-family="Serif" font-size="14" lengthAdjust="spacing" textLength="32" x="131" y="147.1064">URL</text><line style="stroke:#00008B;stroke-width:1.5;" x1="231" x2="256" y1="86.5938" y2="52.2969"/><polygon fill="#00008B" points="253.7829,59.9835,249.3607,56.7601,256,52.2969" style="stroke:#00008B;stroke-width:1.5;"/><text fill="#00008B" font-family="Serif" font-size="14" lengthAdjust="spacing" textLength="91" x="251.5718" y="71.3669">Resolve URL</text><!--SRC=[NO_12i8m38RlUOgmwn2guiM3bE954959wNchGGfZXMRgwzlEED5Ro9V_-ziKkpkFMErF5so8O_-WL67Bc1UG13hgqAJuP67EW8-33qnlPcTW0RG2Pp4m7guzWJFpM2e-C-XwgQR3nIxhS8ksEKhEjM4CmqsYvnGzCPT53grAoFnTPKLswtgZiaS-CVcaHOf_JUilA2zw0G00]--></g></svg>